HIERARCHY
ROOT Hips
{
	OFFSET 0.00000 0.00000 0.00000
	CHANNELS 6 Xposition Yposition Zposition Zrotation Yrotation Xrotation 
	JOINT LHipJoint
	{
		OFFSET 0 0 0
		CHANNELS 3 Zrotation Yrotation Xrotation
		JOINT LeftHip
		{
			OFFSET 1.81638 -1.86202 0.89635
			CHANNELS 3 Zrotation Yrotation Xrotation
			JOINT LeftKnee
			{
				OFFSET 2.63464 -7.23861 0.00000
				CHANNELS 3 Zrotation Yrotation Xrotation
				JOINT LeftAnkle
				{
					OFFSET 2.45871 -6.75336 0.00000
					CHANNELS 3 Zrotation Yrotation Xrotation
					JOINT LeftToe
					{
						OFFSET 0.34235 -0.94059 2.20020
						CHANNELS 3 Zrotation Yrotation Xrotation
						End Site
						{
							OFFSET 0.00000 -0.00000 1.18611
						}
					}
				}
			}
		}
	}
	JOINT RHipJoint
	{
		OFFSET 0 0 0
		CHANNELS 3 Zrotation Yrotation Xrotation
		JOINT RightHip
		{
			OFFSET -1.84405 -1.86203 0.89635
			CHANNELS 3 Zrotation Yrotation Xrotation
			JOINT RightKnee
			{
				OFFSET -2.71067 -7.44751 0.00000
				CHANNELS 3 Zrotation Yrotation Xrotation
				JOINT RightAnkle
				{
					OFFSET -2.47159 -6.79060 0.00000
					CHANNELS 3 Zrotation Yrotation Xrotation
					JOINT RightToe
					{
						OFFSET -0.26223 -0.72048 2.36007
						CHANNELS 3 Zrotation Yrotation Xrotation
						End Site
						{
							OFFSET -0.00000 -0.00000 1.23343
						}
					}
				}
			}
		}
	}
	JOINT lowerback
	{
		OFFSET 0 0 0
		CHANNELS 3 Zrotation Yrotation Xrotation
		JOINT Chest
		{
			OFFSET 0.02089 1.99248 -0.22512
			CHANNELS 3 Zrotation Yrotation Xrotation
			JOINT Chest2
			{
				OFFSET 0.01476 2.01356 -0.03079
				CHANNELS 3 Zrotation Yrotation Xrotation
				JOINT lowerneck
				{
					OFFSET 0 0 0
					CHANNELS 3 Zrotation Yrotation Xrotation
					JOINT Neck
					{
						OFFSET 0.04846 1.65098 0.06663
						CHANNELS 3 Zrotation Yrotation Xrotation
						JOINT Head
						{
							OFFSET -0.06061 1.60634 -0.07565
							CHANNELS 3 Zrotation Yrotation Xrotation
							End Site
							{
								OFFSET -0.02954 1.73562 -0.03642
							}
						}
					}
				}
				JOINT LeftCollar
				{
					OFFSET 0 0 0
					CHANNELS 3 Zrotation Yrotation Xrotation
					JOINT LeftShoulder
					{
						OFFSET 3.45234 1.47051 -0.06993
CHANNELS 3 Zrotation Xrotation Yrotation
						JOINT LeftElbow
						{
OFFSET 0 -5.493130 0.000000
CHANNELS 3 Zrotation Xrotation Yrotation
							JOINT LeftWrist
							{
OFFSET 0 -3.290370 0.000000
CHANNELS 3 Zrotation Xrotation Yrotation
								JOINT lhand
								{
									OFFSET 0 0 0
CHANNELS 3 Zrotation Xrotation Yrotation
									JOINT LFingers
									{
OFFSET 0 -0.729660 0.000000
CHANNELS 3 Zrotation Xrotation Yrotation
										End Site
										{
OFFSET 0 -0.588270 0.000000
										}
									}
								}
								JOINT LThumb
								{
OFFSET 0 0.000000 0.000000
CHANNELS 3 Zrotation Xrotation Yrotation
									End Site
									{
OFFSET 0 -0.597250 0.597250
									}
								}
							}
						}
					}
				}
				JOINT RightCollar
				{
					OFFSET 0 0 0
					CHANNELS 3 Zrotation Yrotation Xrotation
					JOINT RightShoulder
					{
						OFFSET -3.41935 1.44327 0.20453
CHANNELS 3 Zrotation Xrotation Yrotation
						JOINT RightElbow
						{
OFFSET 0 -5.236840 0.000000
CHANNELS 3 Zrotation Xrotation Yrotation
							JOINT RightWrist
							{
OFFSET 0 -3.382510 0.000000
CHANNELS 3 Zrotation Xrotation Yrotation
								JOINT rhand
								{
									OFFSET 0 0 0
CHANNELS 3 Zrotation Xrotation Yrotation
									JOINT RFingers
									{
OFFSET 0 -0.691450 0.000000
CHANNELS 3 Zrotation Xrotation Yrotation
										End Site
										{
OFFSET 0 -0.557470 0.000000
										}
									}
								}
								JOINT RThumb
								{
OFFSET 0 0.000000 0.000000
CHANNELS 3 Zrotation Xrotation Yrotation
									End Site
									{
OFFSET 0 -0.565980 0.565980
									}
								}
							}
						}
					}
				}
			}
		}
	}
}
MOTION
Frames: 12
Frame Time: 0.008333333333333333
8.789753 17.899616 15.863705 -175.393017 36.279731 -159.907529 0.000000 0.000000 0.000000 -14.774890 -24.205827 -17.727353 2.643620 10.093757 29.281598 0.188834 -19.151998 -15.057922 0.259390 3.275590 9.046996 0.000000 0.000000 0.000000 12.750460 22.827674 -26.157489 -2.994430 -10.681861 31.218734 -1.391836 2.558216 -21.616123 -1.293180 7.205204 -20.324757 1.934644 -3.258756 24.347461 1.809760 -2.910059 4.673178 1.742559 -1.138689 -8.380894 5.023151 1.077016 -1.573336 -2.096602 1.575950 -8.683602 -1.564773 0.789488 -2.430898 0.000000 0.000000 0.000000 15.274158 2.909320 -41.843809 67.786561 -58.033746 40.891396 16.919407 -0.015809 -0.727466 0.000000 0.000000 0.000000 -7.125000 0.000000 0.000000 -7.648064 30.689657 -2.694737 0.000000 0.000000 0.000000 -13.665649 20.343796 35.111176 -29.554525 -40.508131 -11.119206 -7.264465 -2.211591 16.332222 0.000000 0.000000 0.000000 7.125000 0.000000 0.000000 19.084180 45.528083 -0.260066
8.941344 17.941212 15.718629 -176.049656 35.440784 -159.952406 0.000000 0.000000 0.000000 -15.282547 -23.425514 -17.142751 2.440992 9.728966 28.104140 -0.064009 -20.346558 -13.799674 0.314460 3.603178 9.963004 0.000000 0.000000 0.000000 11.495831 23.282496 -26.999184 -2.507846 -9.848038 28.489597 -1.355536 1.841092 -21.488713 -1.273289 7.151656 -20.165360 2.205710 -3.217225 24.028357 2.106805 -2.763691 4.664961 1.854608 -1.070739 -8.225045 4.995766 0.713741 -1.442128 -2.480514 1.065375 -8.794838 -1.682251 0.543897 -2.511872 0.000000 0.000000 0.000000 15.203257 2.871151 -43.563901 74.302228 -59.031420 46.450985 16.875536 -0.519273 -0.564364 0.000000 0.000000 0.000000 -7.125000 0.000000 0.000000 -7.668733 30.520119 -2.733597 0.000000 0.000000 0.000000 -14.189160 20.313227 34.756431 -29.023041 -40.040708 -10.775656 -5.878495 -2.934671 17.028835 0.000000 0.000000 0.000000 7.125000 0.000000 0.000000 20.582710 46.015168 -0.540176
9.096392 17.975599 15.568953 -176.739568 34.748853 -160.067654 0.000000 0.000000 0.000000 -15.857367 -22.488051 -16.538375 2.255692 9.378914 26.988450 -0.339088 -21.598421 -12.473124 0.382484 3.970063 10.992713 0.000000 0.000000 0.000000 10.440566 23.347065 -27.850880 -2.138292 -9.146611 26.256309 -1.306054 1.025377 -21.300479 -1.245087 7.074895 -19.937390 2.435046 -3.107378 23.660167 2.358037 -2.550958 4.654404 1.918457 -0.971580 -8.047295 5.019710 0.321057 -1.357377 -2.925505 0.505152 -8.777246 -1.825643 0.273449 -2.546550 0.000000 0.000000 0.000000 15.203920 3.119542 -44.973388 80.504059 -59.646898 51.786455 16.811278 -1.241338 -0.275632 0.000000 0.000000 0.000000 -7.125000 0.000000 0.000000 -7.695102 30.220372 -2.798770 0.000000 0.000000 0.000000 -14.582963 20.297996 34.225649 -28.448662 -39.525614 -10.408213 -4.785075 -3.486710 17.598228 0.000000 0.000000 0.000000 7.125000 0.000000 0.000000 21.784852 46.409438 -0.795611
9.253755 18.001379 15.414769 -177.467085 34.164436 -160.296684 0.000000 0.000000 0.000000 -16.509373 -21.476734 -15.879573 2.097134 9.064912 25.998986 -0.628013 -22.821445 -11.087425 0.462956 4.362448 12.099014 0.000000 0.000000 0.000000 9.636917 23.041876 -28.649322 -1.885135 -8.621077 24.617910 -1.260135 0.053907 -21.219350 -1.201567 6.954655 -19.581123 2.636331 -2.946461 23.287079 2.568342 -2.286669 4.643593 1.939172 -0.847404 -7.868446 5.091206 -0.102342 -1.306884 -3.431230 -0.103241 -8.644153 -1.995417 -0.021351 -2.543053 0.000000 0.000000 0.000000 15.253920 3.646415 -46.060176 85.988845 -59.929117 56.527305 16.760412 -2.202767 0.147726 0.000000 0.000000 0.000000 -7.125000 0.000000 0.000000 -7.700748 29.781637 -2.882171 0.000000 0.000000 0.000000 -14.856331 20.325194 33.530117 -27.860509 -38.986935 -10.035972 -4.065537 -3.776107 17.994472 0.000000 0.000000 0.000000 7.125000 0.000000 0.000000 22.591661 46.684193 -0.988830
9.412155 18.017683 15.256814 -178.234020 33.645970 -160.662826 0.000000 0.000000 0.000000 -17.238895 -20.424853 -15.184894 1.977433 8.818867 25.230322 -0.922981 -23.985228 -9.666162 0.555658 4.773870 13.264925 0.000000 0.000000 0.000000 9.078442 22.458241 -29.317940 -1.727529 -8.273632 23.548605 -1.222623 -1.081333 -21.315350 -1.136135 6.768987 -19.032881 2.808428 -2.759139 22.953213 2.756311 -1.996184 4.635522 1.947752 -0.709197 -7.706657 5.154790 -0.540569 -1.291642 -3.967458 -0.734034 -8.414989 -2.172920 -0.326930 -2.506616 0.000000 0.000000 0.000000 15.309295 4.415048 -46.820671 90.461665 -59.996204 60.399786 16.650753 -3.222375 0.515380 0.000000 0.000000 0.000000 -7.125000 0.000000 0.000000 -7.757332 29.400556 -2.974791 0.000000 0.000000 0.000000 -15.073161 20.397983 32.754426 -27.282281 -38.446704 -9.674222 -3.753822 -3.770570 18.247982 0.000000 0.000000 0.000000 7.125000 0.000000 0.000000 22.978373 46.877375 -1.122302
9.571303 18.022136 15.096160 -179.041002 33.151001 -161.197052 0.000000 0.000000 0.000000 -18.035944 -19.317868 -14.517963 1.916892 8.690686 24.832372 -1.226072 -25.116276 -8.212397 0.659226 5.191172 14.454968 0.000000 0.000000 0.000000 8.767519 21.644835 -29.766758 -1.652863 -8.101996 23.024269 -1.181663 -2.326537 -21.498245 -1.044973 6.500020 -18.242574 2.944999 -2.565014 22.698074 2.939489 -1.700001 4.635518 1.974437 -0.565521 -7.575841 5.194824 -0.980629 -1.318477 -4.536034 -1.367151 -8.109488 -2.357222 -0.632746 -2.442329 0.000000 0.000000 0.000000 15.336264 5.406198 -47.218749 93.628367 -59.947415 63.141687 16.463216 -4.116266 0.739562 0.000000 0.000000 0.000000 -7.125000 0.000000 0.000000 -7.885970 29.167780 -3.069093 0.000000 0.000000 0.000000 -15.278628 20.513521 31.964268 -26.730216 -37.920266 -9.333039 -3.861112 -3.444346 18.380102 0.000000 0.000000 0.000000 7.125000 0.000000 0.000000 22.940722 47.012999 -1.200834
9.731448 18.014447 14.934065 -179.882873 32.632158 -161.881239 0.000000 0.000000 0.000000 -18.860292 -18.146325 -13.975096 1.928424 8.715162 24.908501 -1.551488 -26.285789 -6.674277 0.773442 5.614483 15.670204 0.000000 0.000000 0.000000 8.628730 20.702761 -29.964521 -1.637229 -8.065684 22.913776 -1.107283 -3.543877 -21.449048 -0.956245 6.226181 -17.442360 3.064791 -2.376737 22.527974 3.120663 -1.408322 4.640026 2.013944 -0.421830 -7.484392 5.224004 -1.420750 -1.385627 -5.132862 -1.997589 -7.751095 -2.550066 -0.936943 -2.357899 0.000000 0.000000 0.000000 15.350540 6.557226 -47.308557 95.511342 -59.884745 64.771151 16.165980 -4.754082 0.799572 0.000000 0.000000 0.000000 -7.125000 0.000000 0.000000 -8.112146 29.104641 -3.170890 0.000000 0.000000 0.000000 -15.478439 20.678454 31.188704 -26.216295 -37.421321 -9.018872 -4.305718 -2.877338 18.458733 0.000000 0.000000 0.000000 7.125000 0.000000 0.000000 22.578458 47.143932 -1.256281
9.893219 17.992389 14.771863 -180.766242 32.043840 -162.724030 0.000000 0.000000 0.000000 -19.678700 -16.889159 -13.677049 2.039219 8.946559 25.628851 -1.925814 -27.565825 -4.919697 0.889987 6.011845 16.819159 0.000000 0.000000 0.000000 8.581798 19.715867 -29.859141 -1.677828 -8.159895 23.200834 -0.968721 -4.364723 -20.654646 -0.795719 5.688040 -15.883475 3.178457 -2.200739 22.458507 3.299355 -1.124676 4.649436 2.060502 -0.279714 -7.440343 5.254638 -1.866815 -1.502441 -5.759069 -2.630948 -7.356371 -2.755199 -1.242641 -2.258576 0.000000 0.000000 0.000000 15.368169 7.821420 -47.107107 95.973981 -59.864673 65.171238 15.713121 -5.093686 0.654467 0.000000 0.000000 0.000000 -7.125000 0.000000 0.000000 -8.475616 29.251563 -3.285668 0.000000 0.000000 0.000000 -15.654670 20.901670 30.418263 -25.753564 -36.963933 -8.739179 -5.023848 -2.141672 18.512801 0.000000 0.000000 0.000000 7.125000 0.000000 0.000000 21.958836 47.289261 -1.300429
10.056427 17.959708 14.611255 -181.660306 31.353886 -163.666858 0.000000 0.000000 0.000000 -20.419634 -15.598030 -13.684936 2.256346 9.379827 26.991599 -2.360758 -28.927919 -2.772415 1.001812 6.369054 17.859002 0.000000 0.000000 0.000000 8.543306 18.786123 -29.496478 -1.767061 -8.362871 23.821925 -0.809506 -4.623607 -19.283170 -0.569811 4.829818 -13.424685 3.305488 -2.044575 22.470235 3.482369 -0.854418 4.661068 2.110540 -0.142409 -7.436915 5.302322 -2.317276 -1.658378 -6.410313 -3.264523 -6.956379 -2.974677 -1.548913 -2.156569 0.000000 0.000000 0.000000 15.387210 9.125413 -46.677954 95.229729 -59.895998 64.527484 15.094728 -5.224601 0.362637 0.000000 0.000000 0.000000 -7.125000 0.000000 0.000000 -8.981629 29.546406 -3.422315 0.000000 0.000000 0.000000 -15.794549 21.161777 29.627453 -25.335586 -36.544964 -8.488970 -5.896336 -1.337306 18.569498 0.000000 0.000000 0.000000 7.125000 0.000000 0.000000 21.198444 47.458486 -1.343553
10.220932 17.919139 14.454798 -182.504808 30.525054 -164.666301 0.000000 0.000000 0.000000 -20.974149 -14.416745 -14.087874 2.620740 10.049872 29.142288 -2.832031 -30.179986 -0.002750 1.088124 6.629022 18.620899 0.000000 0.000000 0.000000 8.495340 17.998693 -28.879201 -1.912500 -8.680351 24.801153 -0.676302 -4.458504 -17.783927 -0.335890 3.701290 -10.240404 3.494699 -1.913124 22.567928 3.674917 -0.589068 4.680530 2.138811 -0.005931 -7.471212 5.384581 -2.782033 -1.830186 -7.069484 -3.910503 -6.612958 -3.206842 -1.861401 -2.078420 0.000000 0.000000 0.000000 15.410308 10.404520 -46.028615 93.162622 -59.959364 62.738489 14.281395 -5.180043 -0.013311 0.000000 0.000000 0.000000 -7.125000 0.000000 0.000000 -9.651125 29.921279 -3.595906 0.000000 0.000000 0.000000 -15.853979 21.429892 28.763270 -24.956932 -36.159640 -8.264602 -6.869562 -0.532892 18.627075 0.000000 0.000000 0.000000 7.125000 0.000000 0.000000 20.342741 47.643668 -1.380787
10.385993 17.874494 14.302320 -183.182895 29.553277 -165.608579 0.000000 0.000000 0.000000 -21.219480 -13.479410 -14.852212 3.132722 10.905460 31.963397 -3.258952 -31.095237 3.351390 1.106498 6.683302 18.780510 0.000000 0.000000 0.000000 8.550871 17.289519 -28.131630 -2.100793 -9.072679 26.023033 -0.609498 -3.953288 -16.715274 -0.154095 2.525025 -6.959177 3.826966 -1.826309 22.705014 3.901984 -0.334241 4.706646 2.126423 0.126185 -7.519981 5.473684 -3.245213 -1.979542 -7.692209 -4.548886 -6.369846 -3.430412 -2.168876 -2.041123 0.000000 0.000000 0.000000 15.390221 11.633676 -45.173596 90.018560 -59.998680 60.016043 13.361740 -4.963776 -0.418770 0.000000 0.000000 0.000000 -7.125000 0.000000 0.000000 -10.411313 30.319764 -3.787211 0.000000 0.000000 0.000000 -15.863343 21.654193 27.874115 -24.592906 -35.784917 -8.050651 -7.882983 0.213252 18.691955 0.000000 0.000000 0.000000 7.125000 0.000000 0.000000 19.448769 47.842719 -1.414476
10.550955 17.828018 14.153426 -183.519506 28.431978 -166.370735 0.000000 0.000000 0.000000 -20.953435 -12.953059 -16.016280 3.836755 11.931240 35.500934 -3.507691 -31.400804 7.059056 0.987724 6.322405 17.723909 0.000000 0.000000 0.000000 8.892475 16.641959 -27.296159 -2.321435 -9.504301 27.386994 -0.624488 -3.472465 -16.591833 -0.064825 1.624331 -4.468941 4.431822 -1.803218 22.836926 4.188952 -0.079764 4.740007 2.023630 0.258082 -7.558785 5.585077 -3.699647 -2.083794 -8.242072 -5.171907 -6.261078 -3.634844 -2.467467 -2.059260 0.000000 0.000000 0.000000 15.304692 12.805164 -44.083828 85.731400 -59.921461 56.304481 12.379248 -4.487832 -0.950033 0.000000 0.000000 0.000000 -7.125000 0.000000 0.000000 -11.242323 30.836788 -3.956692 0.000000 0.000000 0.000000 -15.832158 21.763324 26.998804 -24.209772 -35.384974 -7.827849 -8.889906 0.863653 18.769809 0.000000 0.000000 0.000000 7.125000 0.000000 0.000000 18.560180 48.055568 -1.445327
